<?xml version="1.0" standalone="no"?>
<!DOCTYPE svg PUBLIC "-//W3C//DTD SVG 20010904//EN"
 "http://www.w3.org/TR/2001/REC-SVG-20010904/DTD/svg10.dtd">
<svg version="1.0" xmlns="http://www.w3.org/2000/svg"
 width="1024.000000pt" height="573.000000pt" viewBox="0 0 1024.000000 573.000000"
 preserveAspectRatio="xMidYMid meet">

<g transform="translate(0.000000,573.000000) scale(0.100000,-0.100000)"
fill="#000000" stroke="none">
<path d="M0 2865 l0 -2865 1679 0 c1334 0 1680 3 1684 13 4 10 6 10 6 0 1 -10
695 -13 3436 -13 l3435 0 0 2865 0 2865 -3446 0 -3446 0 6 -62 c3 -35 8 -165
12 -290 l6 -228 -99 0 c-54 0 -105 5 -113 10 -13 8 -12 10 3 10 33 0 49 25 35
57 -14 34 -17 103 -5 103 9 0 6 55 -9 203 -4 38 -2 57 5 57 18 0 13 40 -9 67
-21 27 -19 43 8 44 9 0 1 7 -18 14 -29 11 -313 14 -1602 14 l-1568 1 0 -2865z
m7700 2321 c0 -14 -45 -292 -61 -381 -11 -60 -33 -195 -48 -300 l-27 -190 -79
-7 c-43 -4 -80 -6 -81 -5 -1 1 2 29 7 62 13 85 29 199 39 276 5 36 11 82 15
102 4 22 3 37 -3 37 -13 0 -25 -52 -28 -115 -1 -27 -4 -57 -7 -65 -3 -8 -8
-46 -11 -85 -10 -123 -24 -205 -36 -220 -10 -12 -9 -15 3 -15 12 0 13 -4 4
-24 -7 -13 -15 -22 -19 -20 -7 5 -12 -18 -9 -38 1 -9 -7 -10 -36 -2 -13 4 -23
14 -23 24 0 10 -6 20 -12 23 -10 3 -10 9 -2 28 6 13 12 46 13 73 2 57 6 66 28
66 18 0 53 28 53 42 0 4 -15 8 -33 8 -28 0 -36 5 -51 36 -16 35 -16 37 1 57
13 14 15 21 6 24 -7 3 -13 14 -14 26 0 15 -2 17 -6 7 -3 -8 -13 -24 -22 -34
-12 -14 -13 -20 -3 -23 32 -12 -12 -70 -81 -105 -32 -16 -36 -22 -27 -34 7 -8
21 -14 32 -14 18 0 19 -5 14 -47 -4 -27 -7 -63 -7 -81 0 -21 -10 -43 -29 -64
-26 -28 -36 -32 -86 -33 -49 0 -58 -4 -76 -28 -11 -15 -26 -27 -33 -27 -7 0
-15 -6 -18 -12 -3 -10 -8 -10 -17 -2 -9 9 -18 8 -38 -2 -15 -8 -35 -14 -44
-14 -23 0 -23 36 -4 186 8 60 17 142 21 182 5 52 11 72 21 72 8 0 14 5 14 10
0 6 -4 10 -10 10 -18 0 -11 30 8 31 16 1 16 2 0 6 -14 3 -18 15 -18 47 0 23 3
46 7 49 3 4 8 21 10 39 2 23 0 29 -7 22 -13 -13 -21 -71 -55 -384 -33 -305
-35 -317 -57 -304 -7 4 -8 2 -4 -4 4 -7 18 -10 34 -6 16 4 23 3 19 -2 -10 -10
-14 -11 -62 -13 -23 -1 -35 -6 -35 -15 0 -21 -19 -30 -35 -16 -9 7 -33 9 -72
4 -32 -4 -66 -7 -75 -6 -11 0 -18 -6 -18 -18 0 -27 -20 -36 -27 -11 -4 18 -13
21 -53 21 -31 0 -55 6 -69 18 -20 16 -20 19 -6 45 16 31 10 37 -35 34 -18 -2
-25 3 -24 16 1 9 -2 17 -8 17 -5 0 -6 5 -3 10 12 19 24 10 19 -14 -4 -23 -2
-24 25 -16 16 4 32 6 35 2 3 -3 6 2 6 11 0 10 5 17 12 17 9 0 9 3 0 12 -9 9
-16 6 -32 -12 -11 -13 -23 -20 -27 -16 -4 3 -1 12 5 18 17 17 15 28 -7 28 -27
0 -51 10 -51 22 0 5 17 8 38 7 53 -4 65 6 39 35 -13 14 -25 20 -31 15 -6 -5
-23 -18 -38 -30 -27 -20 -27 -21 -11 -46 17 -25 17 -25 -5 -19 -17 6 -22 3
-22 -9 0 -9 5 -13 11 -9 8 4 8 0 0 -15 -6 -11 -10 -31 -7 -44 6 -34 -5 -47
-48 -54 -30 -5 -35 -3 -30 10 4 10 -4 21 -23 31 -18 10 -22 15 -12 16 26 0 48
41 38 69 -6 14 -15 21 -23 18 -10 -4 -16 5 -20 28 -6 28 -10 32 -28 27 -17 -4
-20 -2 -15 12 4 10 7 26 7 36 0 24 64 39 91 22 15 -9 17 -9 13 2 -4 9 -25 15
-60 18 -55 3 -70 -6 -58 -37 3 -8 -4 -28 -15 -44 -13 -18 -19 -36 -14 -48 5
-14 2 -13 -15 5 l-20 23 -13 -35 c-7 -20 -16 -36 -20 -36 -15 0 -36 -59 -32
-84 5 -25 4 -26 -44 -26 -28 0 -72 -3 -98 -7 l-48 -6 7 79 c4 43 12 81 17 85
6 3 3 11 -6 19 -24 20 -30 5 -26 -78 1 -42 -2 -88 -8 -102 -6 -15 -10 -19 -10
-9 -1 30 -85 40 -95 13 -4 -9 -9 -14 -13 -11 -3 4 -12 2 -19 -3 -8 -8 -24 -4
-55 11 -40 22 -43 22 -72 5 -16 -9 -31 -15 -32 -14 -1 3 9 219 40 828 8 168
15 313 15 323 0 16 29 17 468 18 392 2 1119 9 1595 17 64 1 117 0 117 -2z
m-2273 -73 c-4 -32 -9 -135 -13 -230 -4 -94 -10 -177 -14 -183 -4 -7 -32 -13
-64 -13 -44 -1 -55 -4 -51 -15 6 -17 -35 -7 -50 13 -8 9 -15 7 -29 -13 -11
-14 -14 -22 -8 -18 8 5 12 0 12 -13 0 -27 -7 -30 -78 -35 -44 -3 -66 -10 -81
-25 -24 -24 -50 -19 -30 5 9 11 7 14 -15 14 -15 0 -34 -7 -42 -15 -9 -8 -24
-15 -34 -15 -10 0 -22 -5 -26 -11 -5 -8 3 -10 25 -7 21 3 31 0 31 -9 0 -13 18
-19 80 -27 58 -6 90 -17 90 -30 0 -15 59 -14 68 1 4 6 7 -13 7 -43 0 -44 -3
-54 -17 -54 -9 0 -19 6 -21 13 -4 9 -8 9 -14 1 -4 -7 -19 -14 -33 -17 -14 -2
-1 -5 28 -6 51 -1 52 -2 52 -32 0 -26 -3 -30 -22 -25 -13 3 -17 3 -10 0 16 -8
15 -21 -3 -28 -43 -16 -115 58 -93 94 7 10 8 25 3 36 -4 11 -9 25 -9 31 -1 7
-5 12 -11 10 -5 -1 -9 -6 -7 -11 2 -5 -4 -16 -13 -26 -13 -14 -14 -22 -4 -43
15 -33 -8 -73 -69 -117 -49 -35 -50 -51 -4 -65 30 -8 32 -12 32 -52 0 -24 -6
-52 -12 -63 -10 -15 -10 -22 0 -32 13 -13 17 -48 5 -48 -5 0 -16 -14 -26 -32
-14 -23 -21 -28 -29 -20 -15 15 -52 16 -43 2 3 -6 -4 -10 -17 -10 -35 0 -106
-23 -85 -28 21 -4 23 -22 3 -22 -8 0 -18 -5 -21 -10 -4 -6 -3 -10 2 -9 20 3
23 -2 9 -16 -8 -8 -19 -15 -25 -15 -6 0 -11 -5 -11 -11 0 -6 -8 -8 -19 -4 -11
3 -22 1 -25 -4 -4 -6 -13 -8 -20 -5 -7 3 -16 -3 -20 -13 -6 -15 -8 -15 -16 -3
-7 10 -10 11 -10 3 0 -7 -4 -13 -10 -13 -6 0 -10 94 -10 261 0 237 2 263 18
275 16 13 16 15 0 28 -22 16 -23 26 -2 26 10 0 14 7 12 18 -2 9 -9 16 -15 15
-13 -3 -25 77 -14 92 4 5 7 28 6 50 -1 22 5 44 12 50 9 7 2 11 -27 12 -31 2
-42 -2 -50 -18 -6 -11 -9 -25 -7 -32 2 -7 10 0 17 16 7 15 17 27 22 27 12 0
23 -33 12 -37 -5 -2 -8 -155 -6 -385 3 -309 1 -384 -10 -393 -23 -18 -38 -61
-25 -74 8 -8 5 -11 -11 -11 -23 0 -30 24 -12 35 18 11 0 25 -18 15 -9 -5 -46
-17 -82 -26 -56 -14 -79 -19 -123 -23 -5 -1 -5 -6 -2 -11 4 -6 2 -17 -5 -25
-9 -11 -7 -12 10 -8 12 3 19 11 16 18 -5 13 21 21 94 30 l35 5 -38 -13 c-22
-7 -35 -16 -30 -21 4 -5 -3 -6 -17 -2 -19 6 -21 5 -10 -3 8 -6 24 -11 35 -11
14 -1 10 -5 -15 -16 -20 -9 -49 -13 -67 -10 -19 2 -33 0 -36 -7 -4 -12 -63
-19 -141 -18 -71 1 -79 18 -14 28 47 7 50 15 4 12 -38 -4 -59 12 -37 26 16 9
13 35 -4 35 -8 0 -15 5 -15 10 0 6 6 10 13 10 16 0 36 45 27 59 -3 7 -14 9
-23 5 -9 -3 -15 -10 -12 -14 3 -5 1 -11 -5 -15 -6 -3 -10 3 -10 15 0 15 -5 20
-14 17 -7 -3 -30 -2 -50 3 -28 6 -36 5 -36 -6 0 -8 -4 -14 -10 -14 -15 0 -34
-41 -22 -49 9 -5 17 -73 13 -109 -1 -12 -18 -21 -71 -37 -20 -6 -23 -5 -13 6
14 15 0 39 -23 39 -18 0 -18 10 2 49 18 35 11 86 -12 95 -8 3 -14 1 -14 -4 0
-6 -4 -10 -10 -10 -5 0 -10 9 -10 20 0 34 -20 57 -46 52 -22 -4 -24 -1 -24 37
0 45 9 52 83 64 28 4 37 2 37 -9 0 -8 5 -14 10 -14 12 0 13 10 1 29 -7 10 -24
12 -70 8 -34 -2 -61 -1 -61 4 0 5 -4 9 -9 9 -14 0 -20 -40 -10 -68 11 -28 -3
-69 -28 -85 -7 -4 -13 -14 -13 -22 0 -8 -4 -17 -10 -20 -6 -3 -7 1 -4 9 3 9 1
16 -5 16 -6 0 -13 -11 -17 -25 -3 -14 -11 -25 -16 -25 -6 0 -8 -7 -4 -15 3 -9
0 -15 -9 -15 -14 0 -20 -18 -16 -47 1 -7 -3 -13 -9 -13 -13 0 -13 -33 1 -47
12 -12 2 -56 -11 -48 -10 6 -122 -15 -134 -26 -6 -5 -29 -9 -52 -9 -42 0 -42
-1 -39 -31 3 -18 2 -29 -2 -26 -15 16 -29 257 -15 257 7 0 12 7 12 15 0 8 -6
15 -14 15 -8 0 -17 6 -19 13 -4 7 -6 6 -6 -5 -1 -9 -7 -18 -13 -21 -10 -3 -10
-7 -1 -18 6 -8 15 -61 19 -117 l7 -103 -29 12 c-16 7 -33 16 -37 20 -13 10
-82 -18 -85 -35 -2 -9 -9 -16 -17 -16 -7 0 -18 -6 -24 -14 -11 -13 -18 -12
-56 4 l-43 18 -34 -25 -33 -25 28 5 c46 8 40 -10 -8 -22 -54 -13 -55 -13 -55
-1 0 6 8 11 18 11 16 1 16 2 0 6 -15 4 -18 16 -18 71 -1 37 -3 90 -5 117 -3
28 -9 149 -15 270 -10 218 -47 925 -53 1039 -4 53 -8 63 -36 86 l-32 27 188 6
c104 4 323 12 488 18 165 5 462 17 660 25 198 8 479 19 625 25 146 6 335 14
420 18 85 4 184 9 219 10 l64 1 -6 -57z m-3648 21 c22 -5 31 -12 29 -23 -3
-14 -22 -16 -158 -13 -151 4 -179 9 -166 31 8 12 240 16 295 5z m3616 -485 c3
-4 2 -14 -1 -23 -5 -13 -9 -14 -14 -6 -10 17 -31 3 -23 -15 3 -11 -2 -15 -18
-15 -18 0 -20 3 -11 12 21 21 13 28 -27 28 -36 0 -40 -3 -43 -27 l-4 -28 -13
27 c-23 45 -12 53 72 53 42 -1 79 -3 82 -6z m-4943 -55 c3 -21 14 -91 22 -154
9 -63 19 -128 21 -145 3 -16 12 -75 20 -130 8 -55 30 -206 49 -335 39 -259 39
-260 28 -260 -8 0 -55 277 -92 550 -4 36 -15 106 -23 155 -8 50 -23 144 -32
210 -9 66 -19 128 -22 139 -3 12 -1 17 8 14 8 -3 17 -22 21 -44z m4748 -4 c0
-5 -5 -10 -11 -10 -5 0 -7 5 -4 10 3 6 8 10 11 10 2 0 4 -4 4 -10z m157 -27
c0 -10 -5 -21 -10 -25 -13 -8 -37 1 -37 14 0 5 5 6 12 2 8 -5 9 -2 5 9 -4 12
-1 17 12 17 10 0 18 -7 18 -17z m-120 -50 c-3 -10 -5 -2 -5 17 0 19 2 27 5 18
2 -10 2 -26 0 -35z m119 -71 l2 -62 -32 0 c-26 1 -29 3 -16 13 10 8 15 26 13
52 -2 49 3 68 19 63 8 -3 13 -28 14 -66z m-101 -88 c12 -9 10 -13 -10 -22 -23
-11 -25 -9 -25 12 0 13 3 45 8 72 l7 49 3 -50 c2 -29 9 -55 17 -61z m132 74
c-3 -7 -5 -2 -5 12 0 14 2 19 5 13 2 -7 2 -19 0 -25z m1873 -83 c0 -8 -4 -15
-10 -15 -5 0 -10 7 -10 15 0 8 5 15 10 15 6 0 10 -7 10 -15z m499 -39 c-9 -8
-10 -7 -5 7 3 10 7 26 7 35 1 9 4 6 6 -7 3 -13 -1 -28 -8 -35z m-2404 10 c1
-30 -19 -46 -37 -28 -6 6 -8 22 -4 37 9 36 39 30 41 -9z m-170 -213 c-9 -18
-21 -31 -26 -27 -6 3 -21 -4 -35 -17 -31 -29 -40 -20 -20 20 10 19 12 32 6 36
-11 7 -14 74 -4 99 3 9 14 16 24 16 9 0 28 16 41 35 l24 35 3 -82 c2 -59 -2
-90 -13 -115z m2366 151 l-9 -39 -1 36 c-1 20 2 39 6 42 12 13 13 0 4 -39z
m-2294 14 c29 -27 29 -50 1 -63 -32 -14 -36 -50 -6 -52 13 -1 32 -4 44 -7 18
-5 21 -1 20 21 -1 18 5 29 16 31 13 2 16 -4 15 -33 -1 -33 -3 -35 -31 -34 -17
1 -46 -2 -63 -6 l-33 -7 0 86 c0 47 3 86 7 86 4 0 17 -10 30 -22z m2186 -15
c-3 -21 -12 -45 -20 -53 -13 -13 -14 -10 -8 25 9 55 13 65 24 65 6 0 7 -16 4
-37z m34 5 c-3 -7 -5 -2 -5 12 0 14 2 19 5 13 2 -7 2 -19 0 -25z m39 0 c-10
-48 -22 -53 -18 -8 2 22 9 40 14 40 6 0 8 -13 4 -32z m-2161 1 c-8 -11 -42
-12 -49 -1 -3 5 8 9 25 10 16 0 27 -4 24 -9z m2115 -44 c0 -8 -4 -15 -10 -15
-5 0 -7 7 -4 15 4 8 8 15 10 15 2 0 4 -7 4 -15z m-2414 -72 c-10 -10 -19 5
-10 18 6 11 8 11 12 0 2 -7 1 -15 -2 -18z m284 -42 c0 -25 -10 -31 -35 -20
-17 6 -17 8 -3 8 11 1 15 6 12 16 -4 9 0 15 10 15 9 0 16 -8 16 -19z m730 -1
c-20 -13 -43 -13 -35 0 3 6 16 10 28 10 18 0 19 -2 7 -10z m1430 -20 c0 -17
-5 -30 -12 -30 -9 0 -8 -4 2 -10 8 -5 11 -10 5 -10 -5 0 -20 -3 -32 -6 -14 -4
-23 -2 -23 5 0 6 6 11 14 11 9 0 12 8 8 26 -3 16 1 30 9 35 23 15 29 10 29
-21z m-2240 8 c0 -7 -5 -20 -10 -28 -8 -12 -10 -9 -10 13 0 15 5 27 10 27 6 0
10 -6 10 -12z m760 -4 c0 -8 -4 -12 -10 -9 -5 3 -10 10 -10 16 0 5 5 9 10 9 6
0 10 -7 10 -16z m-860 -66 c0 -5 -6 -8 -12 -9 -7 0 -4 -4 7 -9 18 -8 17 -9 -7
-9 -25 -1 -28 3 -28 29 0 28 2 29 20 18 11 -7 20 -16 20 -20z m178 -3 c0 -26
-4 -35 -17 -35 -14 0 -16 7 -13 35 2 20 10 35 17 35 8 0 13 -13 13 -35z m982
25 c0 -5 -5 -10 -11 -10 -5 0 -7 5 -4 10 3 6 8 10 11 10 2 0 4 -4 4 -10z m600
-10 c0 -5 -4 -10 -10 -10 -5 0 -10 5 -10 10 0 6 5 10 10 10 6 0 10 -4 10 -10z
m-1633 -22 c-3 -8 -6 -5 -6 6 -1 11 2 17 5 13 3 -3 4 -12 1 -19z m971 -13
c-11 -9 -98 -15 -98 -6 0 5 19 11 43 13 39 3 63 0 55 -7z m632 5 c0 -5 -5 -10
-11 -10 -5 0 -7 5 -4 10 3 6 8 10 11 10 2 0 4 -4 4 -10z m-130 -10 c0 -5 -4
-10 -10 -10 -5 0 -10 5 -10 10 0 6 5 10 10 10 6 0 10 -4 10 -10z m80 -6 c0 -9
-7 -14 -17 -12 -24 4 -27 23 -3 25 12 1 20 -4 20 -13z m-593 -10 c-3 -3 -12
-4 -19 -1 -8 3 -5 6 6 6 11 1 17 -2 13 -5z m-914 -18 c7 -18 -1 -26 -27 -25
-12 0 -15 3 -8 6 6 2 12 11 12 19 0 18 16 18 23 0z m587 10 c0 -9 -40 -13 -46
-5 -3 5 6 9 20 9 14 0 26 -2 26 -4z m980 -26 c0 -11 5 -29 12 -40 10 -15 10
-26 0 -53 -7 -18 -12 -43 -12 -55 0 -12 -4 -22 -9 -22 -16 0 -31 27 -25 46 5
18 4 17 -11 -1 l-17 -20 4 20 c2 12 13 21 26 23 12 2 22 7 22 12 0 4 -10 6
-21 3 -19 -5 -20 -3 -14 18 4 13 12 27 18 30 5 4 6 12 2 18 -8 15 1 41 15 41
5 0 10 -9 10 -20z m-80 -40 c0 -5 -4 -10 -10 -10 -5 0 -10 5 -10 10 0 6 5 10
10 10 6 0 10 -4 10 -10z m117 -62 c-3 -8 -6 -5 -6 6 -1 11 2 17 5 13 3 -3 4
-12 1 -19z m550 -27 c1 -13 -7 -21 -25 -24 -32 -6 -42 0 -22 13 8 6 11 10 7
10 -5 0 -5 5 -2 10 11 17 41 11 42 -9z m-3802 -21 c3 -5 1 -10 -4 -10 -6 0
-11 5 -11 10 0 6 2 10 4 10 3 0 8 -4 11 -10z m325 -14 c0 -3 -4 -8 -10 -11 -5
-3 -10 -1 -10 4 0 6 5 11 10 11 6 0 10 -2 10 -4z m40 -6 c0 -5 -2 -10 -4 -10
-3 0 -8 5 -11 10 -3 6 -1 10 4 10 6 0 11 -4 11 -10z m2495 -10 c-29 -13 -94
-13 -75 0 8 5 33 9 55 9 31 0 36 -2 20 -9z m-1825 -20 c0 -5 -5 -10 -11 -10
-5 0 -7 5 -4 10 3 6 8 10 11 10 2 0 4 -4 4 -10z m-705 -10 c3 -5 1 -10 -4 -10
-6 0 -11 5 -11 10 0 6 2 10 4 10 3 0 8 -4 11 -10z m2513 -21 c14 0 13 -2 -3
-9 -16 -7 -12 -9 20 -10 l40 -2 -35 -8 c-19 -5 -71 -11 -115 -14 l-80 -5 60
11 c55 10 95 31 77 41 -4 2 -1 2 6 0 8 -1 21 -3 30 -4z m-2861 -26 c-15 -16
-17 -16 -17 -1 0 9 6 18 13 21 20 7 22 -2 4 -20z m813 6 c0 -5 4 -8 9 -4 5 3
12 1 15 -4 3 -5 -1 -11 -9 -15 -9 -3 -19 3 -25 14 -7 14 -7 20 0 20 5 0 10 -5
10 -11z m2193 4 c-7 -2 -21 -2 -30 0 -10 3 -4 5 12 5 17 0 24 -2 18 -5z
m-3043 -18 c7 -9 10 -18 7 -22 -8 -7 -37 15 -37 28 0 14 16 11 30 -6z m817 9
c-3 -3 -12 -4 -19 -1 -8 3 -5 6 6 6 11 1 17 -2 13 -5z m185 -26 c-11 -11 -32
-3 -32 12 0 12 34 18 39 7 2 -5 -1 -13 -7 -19z m1297 11 c34 0 35 -1 11 -10
-17 -7 -38 -7 -65 0 -22 6 -49 13 -60 15 -11 3 2 3 29 1 27 -3 65 -5 85 -6z
m-1379 -9 c0 -5 -4 -10 -10 -10 -5 0 -10 5 -10 10 0 6 5 10 10 10 6 0 10 -4
10 -10z m1203 3 c-7 -2 -19 -2 -25 0 -7 3 -2 5 12 5 14 0 19 -2 13 -5z m317
-23 c0 -11 -7 -23 -15 -27 -21 -8 -24 -2 -14 25 10 28 29 29 29 2z m-1357 -20
c-3 -12 1 -28 10 -38 8 -9 13 -28 12 -42 -2 -14 -4 -33 -4 -42 -1 -19 -41 -26
-41 -8 0 6 5 9 12 8 6 -2 14 5 16 15 3 15 -1 17 -23 11 -25 -6 -27 -5 -19 17
5 13 8 40 7 59 -1 19 3 38 10 42 17 10 26 0 20 -22z m750 10 c-3 -12 -8 -19
-11 -16 -5 6 5 36 12 36 2 0 2 -9 -1 -20z m551 12 c2 -4 1 -14 -4 -22 -7 -11
-12 -12 -21 -3 -6 6 -8 16 -5 22 8 13 23 14 30 3z m219 1 c-7 -2 -21 -2 -30 0
-10 3 -4 5 12 5 17 0 24 -2 18 -5z m-578 -13 c-11 -5 -27 -9 -35 -9 -9 0 -8 4
5 9 11 5 27 9 35 9 9 0 8 -4 -5 -9z m62 4 c-3 -3 -12 -4 -19 -1 -8 3 -5 6 6 6
11 1 17 -2 13 -5z m183 -25 c0 -13 -7 -19 -22 -18 -13 0 -17 3 -10 6 6 2 10 9
6 14 -7 12 5 31 17 24 5 -4 9 -15 9 -26z m50 15 c0 -8 -4 -12 -10 -9 -5 3 -10
10 -10 16 0 5 5 9 10 9 6 0 10 -7 10 -16z m217 10 c-3 -3 -12 -4 -19 -1 -8 3
-5 6 6 6 11 1 17 -2 13 -5z m-324 -25 c3 -12 3 -18 0 -15 -4 3 -12 1 -20 -5
-10 -9 -13 -7 -13 9 0 11 6 23 13 25 6 3 13 6 13 6 1 1 4 -8 7 -20z m-115 -17
c3 -16 -2 -22 -16 -22 -15 0 -18 5 -14 25 5 30 26 28 30 -3z m52 8 c0 -13 -6
-20 -17 -19 -10 0 -13 3 -6 5 7 3 9 12 6 20 -3 8 0 14 6 14 6 0 11 -9 11 -20z
m-1831 -4 c-2 -2 -22 -7 -44 -10 l-40 -5 40 13 c36 12 55 13 44 2z m1719 -3
c-4 -22 -22 -20 -26 1 -2 10 3 16 13 16 10 0 15 -7 13 -17z m-58 -8 c0 -8 -7
-15 -15 -15 -8 0 -15 7 -15 15 0 8 7 15 15 15 8 0 15 -7 15 -15z m-122 -7 c-6
-18 -28 -21 -28 -4 0 9 7 16 16 16 9 0 14 -5 12 -12z m57 2 c-3 -5 -10 -10
-16 -10 -5 0 -9 5 -9 10 0 6 7 10 16 10 8 0 12 -4 9 -10z m-925 -20 c0 -5 -4
-10 -10 -10 -5 0 -10 5 -10 10 0 6 5 10 10 10 6 0 10 -4 10 -10z m720 -5 c0
-8 -4 -15 -10 -15 -5 0 -10 7 -10 15 0 8 5 15 10 15 6 0 10 -7 10 -15z m1225
5 c-8 -13 -93 -50 -114 -50 -13 0 -13 2 -2 9 11 7 11 9 0 13 -28 10 6 21 114
37 5 0 5 -3 2 -9z m65 -6 c-8 -8 -23 -20 -34 -26 -19 -10 -18 -8 3 16 26 27
53 37 31 10z m-1340 -4 c-19 -13 -30 -13 -30 0 0 6 10 10 23 10 18 0 19 -2 7
-10z m-60 -26 c0 -8 -5 -12 -10 -9 -6 4 -8 11 -5 16 9 14 15 11 15 -7z m70 7
c0 -5 -11 -11 -25 -13 -14 -3 -25 -2 -25 3 0 4 10 10 23 12 12 2 23 5 25 6 1
0 2 -3 2 -8z m-110 -21 c-8 -5 -17 -7 -19 -4 -3 3 1 9 9 14 8 5 17 7 19 4 3
-3 -1 -9 -9 -14z m1028 -17 c-7 -16 -18 -36 -24 -47 -10 -15 -12 -11 -9 25 2
24 4 45 4 47 1 1 10 2 21 2 18 0 18 -3 8 -27z m-2708 7 c0 -5 -4 -10 -10 -10
-5 0 -10 5 -10 10 0 6 5 10 10 10 6 0 10 -4 10 -10z m1650 1 c0 -6 -9 -9 -20
-8 -11 1 -20 5 -20 9 0 4 9 8 20 8 11 0 20 -4 20 -9z m1390 -2 c0 -29 -22 -49
-55 -49 -47 0 -46 23 3 43 46 19 52 20 52 6z m-666 -106 c-4 -49 -8 -90 -10
-92 -4 -5 -262 -67 -315 -76 l-39 -7 0 37 c0 26 -4 34 -12 29 -7 -3 27 33 76
82 l90 88 85 12 c147 20 133 28 125 -73z m-1217 55 c-3 -8 -6 -5 -6 6 -1 11 2
17 5 13 3 -3 4 -12 1 -19z m953 -3 c0 -8 -85 -84 -89 -80 -2 3 4 16 14 31 13
21 14 28 4 34 -8 6 -1 10 22 13 19 2 37 5 42 5 4 1 7 0 7 -3z m800 1 c0 -3 -4
-8 -10 -11 -5 -3 -10 -1 -10 4 0 6 5 11 10 11 6 0 10 -2 10 -4z m-3437 -111
c17 -24 16 -45 -4 -45 -5 0 -9 8 -9 18 -1 10 -7 3 -15 -15 -14 -32 -35 -45
-35 -21 0 15 33 88 40 87 3 0 13 -11 23 -24z m1327 15 c-8 -5 -24 -10 -35 -10
-17 0 -17 2 -5 10 8 5 24 10 35 10 17 0 17 -2 5 -10z m802 -42 c2 -13 2 -55 0
-95 l-4 -71 -48 -21 c-57 -25 -105 -27 -114 -6 -3 8 -14 15 -25 15 -44 0 -50
88 -8 121 20 17 20 17 -9 13 -16 -2 14 11 66 30 116 42 136 43 142 14z m-2132
-58 c-20 -13 -40 -13 -40 0 0 6 12 10 28 10 21 0 24 -2 12 -10z m1181 -14 c-8
-10 -9 -16 -1 -21 16 -10 2 -25 -23 -24 -20 1 -20 2 3 9 17 5 19 8 8 9 -31 2
-21 41 10 41 11 0 12 -3 3 -14z m-1151 -6 c0 -5 -4 -10 -9 -10 -5 0 -23 -3
-40 -6 -19 -4 -31 -2 -31 4 0 10 23 18 63 21 9 0 17 -3 17 -9z m1090 -19 c0
-11 -5 -23 -11 -27 -15 -9 -33 12 -26 30 9 23 37 20 37 -3z m636 -43 c-9 -62
-12 -68 -35 -68 -24 0 -47 28 -55 66 -6 28 -4 32 26 41 67 22 71 19 64 -39z
m-706 34 c0 -13 -12 -22 -22 -16 -10 6 -1 24 13 24 5 0 9 -4 9 -8z m-59 -40
c6 -16 5 -22 -5 -22 -19 0 -39 27 -31 40 10 16 27 7 36 -18z m-76 -11 c-5 -15
-1 -18 22 -15 25 4 24 3 -7 -10 -44 -18 -50 -19 -50 -5 0 5 6 7 13 3 9 -6 9
-5 0 7 -10 12 -10 18 -1 27 18 18 30 14 23 -7z m-67 -13 c-6 -18 -28 -21 -28
-4 0 9 7 16 16 16 9 0 14 -5 12 -12z m-805 -35 c3 -16 1 -34 -5 -40 -7 -9 -7
-13 1 -13 25 0 0 -18 -34 -24 -48 -9 -50 -9 -48 14 1 32 2 33 21 19 9 -7 13
-9 9 -4 -5 6 6 15 25 22 33 13 33 13 -14 7 -40 -4 -48 -2 -48 11 0 17 32 33
66 34 16 1 23 -6 27 -26z m745 -1 c2 -14 -2 -22 -11 -22 -9 0 -24 -3 -34 -6
-10 -3 -7 2 7 10 14 8 19 15 13 16 -7 0 -13 7 -13 16 0 24 35 12 38 -14z
m-173 5 c-25 -11 -30 -19 -30 -48 0 -40 26 -29 -329 -129 -137 -39 -222 -58
-228 -52 -5 5 -8 24 -6 42 l3 33 140 39 c150 42 294 80 363 98 23 6 42 14 42
18 0 5 17 9 38 10 l37 2 -30 -13z m95 -18 c0 -20 -24 -26 -35 -9 -8 13 14 42
26 34 5 -3 9 -14 9 -25z m150 22 c0 -5 -11 -11 -25 -13 -14 -3 -25 -3 -25 -1
0 3 34 19 48 22 1 1 2 -3 2 -8z m550 -25 c0 -30 -4 -36 -33 -45 -19 -7 -49
-23 -68 -37 -68 -51 -72 -51 -64 -5 4 23 8 49 9 59 2 11 24 24 67 39 85 30 89
29 89 -11z m-950 14 c-30 -4 -68 -10 -85 -14 -20 -4 -17 -1 10 8 22 8 60 14
85 14 l45 -1 -55 -7z m180 -30 c0 -13 -7 -20 -20 -20 -13 0 -20 7 -20 20 0 13
7 20 20 20 13 0 20 -7 20 -20z m-301 6 c-2 -2 -24 -6 -49 -9 -30 -4 -38 -3
-25 3 19 8 83 14 74 6z m-102 -22 c-3 -3 -12 -4 -19 -1 -8 3 -5 6 6 6 11 1 17
-2 13 -5z m-72 -14 c-3 -5 -16 -10 -28 -9 -20 1 -20 2 3 9 14 4 26 8 28 9 2 1
0 -3 -3 -9z m-62 -17 c-7 -2 -19 -2 -25 0 -7 3 -2 5 12 5 14 0 19 -2 13 -5z
m1307 -23 c0 -22 -6 -33 -22 -40 -28 -11 -130 -32 -134 -27 -5 5 90 75 117 86
36 15 39 13 39 -19z m-1426 -16 c-13 -11 -15 -17 -6 -20 16 -8 15 -21 -3 -28
-12 -4 -15 3 -15 29 0 29 4 35 22 35 21 0 21 0 2 -16z m956 -53 c-10 -38 -30
-57 -30 -29 0 6 -7 4 -18 -5 -10 -10 -26 -17 -35 -17 -9 0 -37 -5 -62 -12 -39
-10 -48 -10 -55 2 -6 9 -5 17 3 22 7 5 3 8 -13 8 -43 0 -9 17 99 49 57 17 107
33 110 37 11 11 12 -16 1 -55z m-930 -31 c0 -13 -7 -20 -18 -20 -24 0 -32 8
-25 26 8 22 43 17 43 -6z m4576 -85 c-44 -19 -82 -35 -85 -34 -12 1 134 69
149 69 8 0 -21 -16 -64 -35z m-4149 9 c-3 -3 -12 -4 -19 -1 -8 3 -5 6 6 6 11
1 17 -2 13 -5z m4018 -64 c-22 -10 -44 -18 -50 -18 -5 0 8 8 30 19 22 10 45
18 50 18 6 0 -8 -9 -30 -19z m-105 -40 c-8 -5 -19 -10 -25 -10 -5 0 -3 5 5 10
8 5 20 10 25 10 6 0 3 -5 -5 -10z m-55 -20 c-27 -12 -43 -12 -25 0 8 5 22 9
30 9 10 0 8 -3 -5 -9z m-4287 -45 c-3 -3 -13 7 -23 22 l-17 28 23 -22 c12 -12
20 -25 17 -28z m4187 15 c-3 -5 -12 -10 -18 -10 -7 0 -6 4 3 10 19 12 23 12
15 0z m-80 -30 c-27 -12 -43 -12 -25 0 8 5 22 9 30 9 10 0 8 -3 -5 -9z m-4074
-17 c13 -16 12 -17 -3 -4 -17 13 -22 21 -14 21 2 0 10 -8 17 -17z m4922 10
c-7 -2 -19 -2 -25 0 -7 3 -2 5 12 5 14 0 19 -2 13 -5z m170 -49 c18 -9 34 -20
37 -24 3 -5 3 -43 1 -86 -3 -67 -5 -74 -12 -44 -4 19 -5 54 -2 77 5 40 5 42
-36 62 -22 12 -41 24 -41 26 0 9 21 5 53 -11z m-1223 2 c0 -2 -7 -6 -15 -10
-8 -3 -15 -1 -15 4 0 6 7 10 15 10 8 0 15 -2 15 -4z m197 -47 c-14 -8 -22 -8
-30 0 -8 8 -3 11 19 11 25 -1 27 -2 11 -11z m-357 -9 c0 -5 -2 -10 -4 -10 -3
0 -8 5 -11 10 -3 6 -1 10 4 10 6 0 11 -4 11 -10z m265 -20 c-3 -5 -14 -10 -23
-10 -15 0 -15 2 -2 10 20 13 33 13 25 0z m-355 -4 c0 -2 -7 -6 -15 -10 -8 -3
-15 -1 -15 4 0 6 7 10 15 10 8 0 15 -2 15 -4z m285 -16 c-3 -5 -14 -10 -23
-10 -15 0 -15 2 -2 10 20 13 33 13 25 0z m160 -50 c-3 -5 -13 -10 -21 -10 -8
0 -12 5 -9 10 3 6 13 10 21 10 8 0 12 -4 9 -10z m1304 -21 c52 -52 34 -96 -27
-65 -23 12 -29 21 -25 36 3 11 0 20 -6 20 -6 0 -11 5 -11 10 0 6 6 9 13 8 6
-2 11 3 10 10 -5 21 14 13 46 -19z m-1382 -5 c-3 -3 -12 -4 -19 -1 -8 3 -5 6
6 6 11 1 17 -2 13 -5z m503 -14 c0 -5 -4 -10 -10 -10 -5 0 -10 5 -10 10 0 6 5
10 10 10 6 0 10 -4 10 -10z m125 0 c-3 -5 -14 -10 -23 -10 -15 0 -15 2 -2 10
20 13 33 13 25 0z m-708 -16 c-3 -3 -12 -4 -19 -1 -8 3 -5 6 6 6 11 1 17 -2
13 -5z m254 -9 c3 2 24 -11 48 -30 24 -19 47 -32 52 -29 5 3 9 -2 9 -10 0 -9
6 -16 14 -16 7 0 19 -7 27 -16 10 -13 10 -17 -2 -25 -24 -15 -57 -10 -64 10
-5 17 -22 27 -79 45 -10 3 -16 12 -13 19 3 8 -3 19 -14 25 -11 7 -16 18 -13
27 5 11 10 13 19 5 6 -5 14 -8 16 -5z m2046 -31 c59 -45 43 -69 -95 -142 -37
-19 -103 -55 -147 -78 -178 -97 -675 -338 -681 -331 -3 2 35 24 83 48 127 65
425 220 596 311 81 43 149 78 152 78 15 0 105 64 105 75 0 7 -14 25 -31 39
-39 34 -26 34 18 0z m-2087 -4 c0 -5 -8 -10 -18 -10 -10 0 -22 -3 -26 -7 -3
-4 -12 -8 -19 -9 -7 -1 -32 -9 -56 -18 -24 -9 -48 -16 -54 -16 -20 0 7 17 46
30 22 7 51 18 65 26 32 16 62 18 62 4z m-796 -16 c9 -22 -3 -32 -14 -14 -12
19 -12 30 -1 30 5 0 12 -7 15 -16z m-357 -40 c-3 -3 -12 -4 -19 -1 -8 3 -5 6
6 6 11 1 17 -2 13 -5z m1673 -41 c-1 -11 -67 -43 -74 -36 -12 12 -5 22 22 31
34 13 52 14 52 5z m-492 -51 c-5 -24 -52 -23 -56 2 -2 10 2 22 9 27 18 11 51
-9 47 -29z m122 28 c0 -5 -2 -10 -4 -10 -3 0 -8 5 -11 10 -3 6 -1 10 4 10 6 0
11 -4 11 -10z m260 -20 c0 -10 -32 -30 -49 -30 -19 0 -12 17 12 28 28 14 37
14 37 2z m-1620 -10 c0 -5 -4 -10 -10 -10 -5 0 -10 5 -10 10 0 6 5 10 10 10 6
0 10 -4 10 -10z m1020 0 c-8 -5 -19 -10 -25 -10 -5 0 -3 5 5 10 8 5 20 10 25
10 6 0 3 -5 -5 -10z m155 -40 c-3 -5 -12 -10 -18 -10 -7 0 -6 4 3 10 19 12 23
12 15 0z m325 0 c0 -5 -4 -10 -10 -10 -5 0 -34 -11 -64 -25 -30 -14 -61 -25
-68 -25 -7 0 -26 -7 -42 -15 -33 -18 -56 -13 -56 10 0 13 4 14 20 5 15 -8 29
-6 60 10 22 11 40 18 40 16 0 -2 21 6 48 19 52 26 72 30 72 15z m-1950 -44 c0
-2 -21 -11 -47 -20 -51 -17 -51 -8 0 11 35 13 47 15 47 9z m1661 -71 c-18 -8
-38 -15 -45 -14 -15 1 46 28 64 28 8 0 0 -6 -19 -14z m-1896 -10 c-16 -8 -37
-14 -45 -14 -8 0 1 7 20 14 46 18 64 17 25 0z m-65 -19 c0 -7 -102 -37 -107
-32 -3 3 17 11 43 20 53 16 64 18 64 12z m1875 -6 c-3 -5 -11 -10 -16 -10 -6
0 -7 5 -4 10 3 6 11 10 16 10 6 0 7 -4 4 -10z m-1745 -55 c0 -3 -11 2 -24 12
-13 10 -22 22 -19 26 5 8 43 -26 43 -38z m-374 -21 c-38 -13 -71 -22 -73 -20
-5 5 107 44 127 44 8 0 -16 -10 -54 -24z m-180 -60 c-38 -13 -71 -22 -73 -20
-5 5 107 44 127 44 8 0 -16 -10 -54 -24z m639 16 c3 -5 2 -10 -4 -10 -5 0 -13
5 -16 10 -3 6 -2 10 4 10 5 0 13 -4 16 -10z m-740 -50 c-11 -5 -27 -9 -35 -9
-9 0 -8 4 5 9 11 5 27 9 35 9 9 0 8 -4 -5 -9z m-95 -30 c-8 -5 -22 -9 -30 -9
-10 0 -8 3 5 9 27 12 43 12 25 0z m-83 -26 c-3 -3 -12 -4 -19 -1 -8 3 -5 6 6
6 11 1 17 -2 13 -5z m3773 -8 c0 -2 -7 -7 -16 -10 -8 -3 -12 -2 -9 4 6 10 25
14 25 6z m-4275 -148 c-98 -51 -110 -116 -34 -187 20 -19 19 -41 -2 -41 -13 0
-44 35 -65 73 -19 36 -6 82 34 119 28 27 80 57 97 57 6 0 -8 -9 -30 -21z
m1695 -109 l55 -51 -53 43 c-30 24 -68 57 -85 72 l-32 29 30 -21 c17 -11 55
-44 85 -72z m116 29 l29 -31 -32 23 c-18 13 -33 27 -33 32 0 13 5 10 36 -24z
m1819 -98 c-3 -5 -12 -10 -18 -10 -7 0 -6 4 3 10 19 12 23 12 15 0z m-78 -46
c-3 -3 -12 -4 -19 -1 -8 3 -5 6 6 6 11 1 17 -2 13 -5z m-351 -169 c-11 -8 -25
-15 -30 -15 -6 1 0 7 14 15 32 19 40 18 16 0z m-56 -29 c-8 -8 -26 -17 -40
-20 -19 -5 -17 -2 10 13 42 24 49 26 30 7z m-80 -41 c-7 -8 -17 -15 -23 -15
-6 0 -2 7 9 15 25 19 30 19 14 0z m-110 -55 c-8 -5 -19 -10 -25 -10 -5 0 -3 5
5 10 8 5 20 10 25 10 6 0 3 -5 -5 -10z m-80 -40 c-8 -5 -19 -10 -25 -10 -5 0
-3 5 5 10 8 5 20 10 25 10 6 0 3 -5 -5 -10z m-988 -476 c-12 -8 -28 -13 -35
-11 -7 3 -1 9 13 15 37 16 47 14 22 -4z m-112 -58 c0 -2 -7 -7 -16 -10 -8 -3
-12 -2 -9 4 6 10 25 14 25 6z m-40 -20 c0 -2 -12 -11 -27 -20 l-28 -17 24 20
c23 21 31 25 31 17z m-646 -91 c103 -79 241 -100 366 -55 36 12 69 26 74 31
13 12 26 11 26 0 0 -5 -11 -12 -25 -15 -17 -4 -23 -11 -19 -19 4 -7 3 -9 -1
-4 -5 4 -16 0 -25 -8 -28 -25 -139 -48 -207 -42 -94 7 -259 94 -239 125 10 16
13 16 50 -13z m506 5 c-8 -5 -19 -10 -25 -10 -5 0 -3 5 5 10 8 5 20 10 25 10
6 0 3 -5 -5 -10z m-1993 -56 c-3 -3 -12 -4 -19 -1 -8 3 -5 6 6 6 11 1 17 -2
13 -5z m-129 -67 c-26 -24 -56 -63 -67 -88 -11 -24 -21 -36 -21 -26 0 31 27
73 76 116 62 54 71 53 12 -2z m467 23 c13 -6 15 -9 5 -9 -8 0 -22 4 -30 9 -18
12 -2 12 25 0z m50 -20 c3 -6 -1 -7 -9 -4 -18 7 -21 14 -7 14 6 0 13 -4 16
-10z m156 -87 c13 -16 12 -17 -3 -4 -17 13 -22 21 -14 21 2 0 10 -8 17 -17z
m-764 -131 c-2 -15 -4 -2 -4 28 0 30 2 43 4 27 2 -15 2 -39 0 -55z"/>
<path d="M7476 4978 c-17 -24 -20 -81 -6 -113 7 -15 9 -16 9 -4 1 9 7 22 15
28 18 15 30 64 21 91 -8 26 -20 25 -39 -2z"/>
<path d="M7430 4841 c0 -12 56 -34 72 -29 8 3 0 12 -19 21 -36 19 -53 21 -53
8z"/>
<path d="M7555 4771 c-3 -5 -2 -12 3 -15 5 -3 9 1 9 9 0 17 -3 19 -12 6z"/>
<path d="M6847 4763 c-4 -3 -7 -11 -7 -17 0 -6 5 -5 12 2 6 6 9 14 7 17 -3 3
-9 2 -12 -2z"/>
<path d="M7590 4762 c0 -5 7 -9 15 -9 8 0 15 4 15 9 0 4 -7 8 -15 8 -8 0 -15
-4 -15 -8z"/>
<path d="M6930 4745 c-7 -9 -11 -18 -8 -20 3 -3 11 1 18 10 7 9 11 18 8 20 -3
3 -11 -1 -18 -10z"/>
<path d="M6962 4740 c-7 -11 -8 -20 -2 -20 5 0 14 9 20 20 6 11 7 20 3 20 -5
0 -14 -9 -21 -20z"/>
<path d="M7001 4729 c-7 -12 -10 -23 -8 -26 3 -3 11 5 17 17 15 28 8 35 -9 9z"/>
<path d="M7480 4530 c0 -13 40 -13 60 0 11 7 5 10 -22 10 -21 0 -38 -4 -38
-10z"/>
<path d="M5553 4085 c4 -32 17 -45 17 -16 0 26 28 40 41 20 7 -11 9 -11 9 4 0
13 -8 17 -35 17 -32 0 -35 -2 -32 -25z"/>
<path d="M6693 4063 c9 -2 25 -2 35 0 9 3 1 5 -18 5 -19 0 -27 -2 -17 -5z"/>
<path d="M6653 4033 c9 -2 23 -2 30 0 6 3 -1 5 -18 5 -16 0 -22 -2 -12 -5z"/>
<path d="M5215 4914 c-16 -34 -15 -96 2 -140 3 -9 -2 -14 -16 -14 -27 0 -27
-20 -1 -27 11 -3 20 -9 20 -13 0 -4 11 -5 25 -2 27 5 35 22 10 22 -19 0 -19
46 0 80 17 30 19 84 5 111 -15 28 -25 24 -45 -17z"/>
<path d="M3007 4814 c-3 -4 -2 -15 4 -25 8 -16 6 -19 -10 -19 -14 0 -18 -5
-14 -20 4 -13 13 -19 29 -18 22 2 24 7 22 45 -1 39 -14 54 -31 37z"/>
<path d="M5360 4780 c0 -5 5 -10 10 -10 6 0 10 5 10 10 0 6 -4 10 -10 10 -5 0
-10 -4 -10 -10z"/>
<path d="M5082 4647 c-23 -10 -42 -25 -42 -33 0 -17 17 -19 22 -2 2 6 24 14
48 17 24 3 45 11 47 17 7 21 -33 21 -75 1z"/>
<path d="M4643 4595 c-14 -31 0 -33 21 -3 9 12 19 19 22 15 4 -4 1 -13 -6 -22
-8 -10 -9 -15 -2 -15 6 0 16 9 22 20 6 11 17 20 25 20 17 0 20 -26 5 -35 -5
-3 -10 -12 -9 -18 0 -15 32 30 35 49 2 10 -11 14 -49 14 -46 0 -53 -3 -64 -25z"/>
<path d="M2990 4560 c-13 -8 -12 -10 3 -10 9 0 17 5 17 10 0 12 -1 12 -20 0z"/>
<path d="M2885 4530 c-3 -5 -1 -10 4 -10 6 0 11 5 11 10 0 6 -2 10 -4 10 -3 0
-8 -4 -11 -10z"/>
<path d="M4833 4533 c9 -2 25 -2 35 0 9 3 1 5 -18 5 -19 0 -27 -2 -17 -5z"/>
<path d="M4448 4473 c7 -3 16 -2 19 1 4 3 -2 6 -13 5 -11 0 -14 -3 -6 -6z"/>
<path d="M4938 4463 c-10 -2 -18 -9 -18 -14 0 -6 10 -5 23 2 37 20 36 23 -5
12z"/>
<path d="M5170 4450 c0 -5 5 -10 10 -10 6 0 10 5 10 10 0 6 -4 10 -10 10 -5 0
-10 -4 -10 -10z"/>
<path d="M3978 3879 c-27 -26 -48 -53 -48 -60 0 -8 7 -6 20 6 11 10 28 15 40
12 11 -3 23 -1 26 4 3 6 13 8 22 5 22 -7 63 24 43 32 -8 2 -24 14 -35 26 l-21
21 -47 -46z"/>
<path d="M2930 3895 c-11 -13 -10 -14 4 -9 9 3 16 10 16 15 0 13 -6 11 -20 -6z"/>
<path d="M3025 3630 c-27 -5 -30 -8 -27 -39 2 -19 8 -44 13 -55 7 -16 8 -9 6
26 -4 40 -2 47 17 52 32 9 36 7 36 -10 0 -8 5 -12 10 -9 6 3 10 15 10 25 0 19
-8 21 -65 10z"/>
<path d="M5127 4111 c5 -18 6 -18 24 -3 10 9 19 17 19 17 0 0 -11 2 -24 3 -19
1 -23 -2 -19 -17z"/>
</g>
</svg>
